<?xml version="1.0" encoding="UTF-8" standalone="no"?>
<!DOCTYPE svg PUBLIC "-//W3C//DTD SVG 1.1//EN"
 "http://www.w3.org/Graphics/SVG/1.1/DTD/svg11.dtd">
<!-- Generated by graphviz version 2.38.0 (20140413.2041)
 -->
<!-- Title: models_diagram Pages: 1 -->
<svg width="746pt" height="446pt"
 viewBox="0.00 0.00 746.00 446.00" xmlns="http://www.w3.org/2000/svg" xmlns:xlink="http://www.w3.org/1999/xlink">
<g id="graph0" class="graph" transform="scale(1 1) rotate(0) translate(4 442)">
<title>models_diagram</title>
<polygon fill="none" stroke="none" points="-4,4 -4,-442 742,-442 742,4 -4,4"/>
<!-- _diagram_info -->
<g id="node1" class="node"><title>_diagram_info</title>
<text text-anchor="start" x="8" y="-409.1" font-family="Times,serif" font-size="13.00">Models diagram</text>
<text text-anchor="start" x="8" y="-395.1" font-family="Times,serif" font-size="13.00">Date: Jul 18 2016 &#45; 20:36</text>
<text text-anchor="start" x="8" y="-381.1" font-family="Times,serif" font-size="13.00">Migration version: 20160719002810</text>
<text text-anchor="start" x="8" y="-367.1" font-family="Times,serif" font-size="13.00">Generated by RailRoady 1.5.1</text>
<text text-anchor="start" x="8" y="-353.1" font-family="Times,serif" font-size="13.00">http://railroady.prestonlee.com</text>
</g>
<!-- Inventory -->
<g id="node2" class="node"><title>Inventory</title>
<path fill="none" stroke="black" d="M244,-0.5C244,-0.5 464,-0.5 464,-0.5 470,-0.5 476,-6.5 476,-12.5 476,-12.5 476,-139.5 476,-139.5 476,-145.5 470,-151.5 464,-151.5 464,-151.5 244,-151.5 244,-151.5 238,-151.5 232,-145.5 232,-139.5 232,-139.5 232,-12.5 232,-12.5 232,-6.5 238,-0.5 244,-0.5"/>
<text text-anchor="middle" x="354" y="-136.3" font-family="Times,serif" font-size="14.00">Inventory</text>
<polyline fill="none" stroke="black" points="232,-128.5 476,-128.5 "/>
<text text-anchor="start" x="240" y="-113.3" font-family="Times,serif" font-size="14.00">id :integer</text>
<text text-anchor="start" x="240" y="-98.3" font-family="Times,serif" font-size="14.00">numserie :character varying</text>
<text text-anchor="start" x="240" y="-83.3" font-family="Times,serif" font-size="14.00">tamrueda :integer</text>
<text text-anchor="start" x="240" y="-68.3" font-family="Times,serif" font-size="14.00">desc :text</text>
<text text-anchor="start" x="240" y="-53.3" font-family="Times,serif" font-size="14.00">category_id :integer</text>
<text text-anchor="start" x="240" y="-38.3" font-family="Times,serif" font-size="14.00">created_at :timestamp without time zone</text>
<text text-anchor="start" x="240" y="-23.3" font-family="Times,serif" font-size="14.00">updated_at :timestamp without time zone</text>
<text text-anchor="start" x="240" y="-8.3" font-family="Times,serif" font-size="14.00">work_id :integer</text>
</g>
<!-- Category -->
<g id="node3" class="node"><title>Category</title>
<path fill="none" stroke="black" d="M506,-339C506,-339 726,-339 726,-339 732,-339 738,-345 738,-351 738,-351 738,-418 738,-418 738,-424 732,-430 726,-430 726,-430 506,-430 506,-430 500,-430 494,-424 494,-418 494,-418 494,-351 494,-351 494,-345 500,-339 506,-339"/>
<text text-anchor="middle" x="616" y="-414.8" font-family="Times,serif" font-size="14.00">Category</text>
<polyline fill="none" stroke="black" points="494,-407 738,-407 "/>
<text text-anchor="start" x="502" y="-391.8" font-family="Times,serif" font-size="14.00">id :integer</text>
<text text-anchor="start" x="502" y="-376.8" font-family="Times,serif" font-size="14.00">name :character varying</text>
<text text-anchor="start" x="502" y="-361.8" font-family="Times,serif" font-size="14.00">created_at :timestamp without time zone</text>
<text text-anchor="start" x="502" y="-346.8" font-family="Times,serif" font-size="14.00">updated_at :timestamp without time zone</text>
</g>
<!-- User -->
<g id="node4" class="node"><title>User</title>
<path fill="none" stroke="black" d="M244,-331.5C244,-331.5 464,-331.5 464,-331.5 470,-331.5 476,-337.5 476,-343.5 476,-343.5 476,-425.5 476,-425.5 476,-431.5 470,-437.5 464,-437.5 464,-437.5 244,-437.5 244,-437.5 238,-437.5 232,-431.5 232,-425.5 232,-425.5 232,-343.5 232,-343.5 232,-337.5 238,-331.5 244,-331.5"/>
<text text-anchor="middle" x="354" y="-422.3" font-family="Times,serif" font-size="14.00">User</text>
<polyline fill="none" stroke="black" points="232,-414.5 476,-414.5 "/>
<text text-anchor="start" x="240" y="-399.3" font-family="Times,serif" font-size="14.00">id :integer</text>
<text text-anchor="start" x="240" y="-384.3" font-family="Times,serif" font-size="14.00">name :character varying</text>
<text text-anchor="start" x="240" y="-369.3" font-family="Times,serif" font-size="14.00">email :character varying</text>
<text text-anchor="start" x="240" y="-354.3" font-family="Times,serif" font-size="14.00">created_at :timestamp without time zone</text>
<text text-anchor="start" x="240" y="-339.3" font-family="Times,serif" font-size="14.00">updated_at :timestamp without time zone</text>
</g>
<!-- Work -->
<g id="node5" class="node"><title>Work</title>
<path fill="none" stroke="black" d="M244,-188.5C244,-188.5 464,-188.5 464,-188.5 470,-188.5 476,-194.5 476,-200.5 476,-200.5 476,-282.5 476,-282.5 476,-288.5 470,-294.5 464,-294.5 464,-294.5 244,-294.5 244,-294.5 238,-294.5 232,-288.5 232,-282.5 232,-282.5 232,-200.5 232,-200.5 232,-194.5 238,-188.5 244,-188.5"/>
<text text-anchor="middle" x="354" y="-279.3" font-family="Times,serif" font-size="14.00">Work</text>
<polyline fill="none" stroke="black" points="232,-271.5 476,-271.5 "/>
<text text-anchor="start" x="240" y="-256.3" font-family="Times,serif" font-size="14.00">id :integer</text>
<text text-anchor="start" x="240" y="-241.3" font-family="Times,serif" font-size="14.00">desc :text</text>
<text text-anchor="start" x="240" y="-226.3" font-family="Times,serif" font-size="14.00">user_id :integer</text>
<text text-anchor="start" x="240" y="-211.3" font-family="Times,serif" font-size="14.00">created_at :timestamp without time zone</text>
<text text-anchor="start" x="240" y="-196.3" font-family="Times,serif" font-size="14.00">updated_at :timestamp without time zone</text>
</g>
<!-- User&#45;&gt;Work -->
<g id="edge1" class="edge"><title>User&#45;&gt;Work</title>
<path fill="none" stroke="#50e503" d="M354,-323.194C354,-317.154 354,-311.013 354,-304.952"/>
<ellipse fill="none" stroke="#50e503" cx="354" cy="-327.397" rx="4" ry="4"/>
<polygon fill="#50e503" stroke="#50e503" points="354,-304.859 358.5,-294.859 354,-299.859 354,-294.859 354,-294.859 354,-294.859 354,-299.859 349.5,-294.859 354,-304.859 354,-304.859"/>
</g>
<!-- Work&#45;&gt;Inventory -->
<g id="edge2" class="edge"><title>Work&#45;&gt;Inventory</title>
<path fill="none" stroke="#9c8148" d="M354,-180.248C354,-173.552 354,-166.649 354,-159.737"/>
<ellipse fill="none" stroke="#9c8148" cx="354" cy="-184.318" rx="4" ry="4"/>
<ellipse fill="#9c8148" stroke="#9c8148" cx="354" cy="-155.63" rx="4" ry="4"/>
</g>
</g>
</svg>
