<?xml version="1.0" encoding="UTF-8" standalone="no"?>
<!DOCTYPE svg PUBLIC "-//W3C//DTD SVG 1.1//EN"
 "http://www.w3.org/Graphics/SVG/1.1/DTD/svg11.dtd">
<!-- Generated by graphviz version 2.38.0 (20140413.2041)
 -->
<!-- Title: models_diagram Pages: 1 -->
<svg width="398pt" height="230pt"
 viewBox="0.00 0.00 397.90 230.00" xmlns="http://www.w3.org/2000/svg" xmlns:xlink="http://www.w3.org/1999/xlink">
<g id="graph0" class="graph" transform="scale(1 1) rotate(0) translate(4 226)">
<title>models_diagram</title>
<polygon fill="none" stroke="none" points="-4,4 -4,-226 393.896,-226 393.896,4 -4,4"/>
<!-- _diagram_info -->
<g id="node1" class="node"><title>_diagram_info</title>
<text text-anchor="start" x="8" y="-207.6" font-family="Times,serif" font-size="13.00">Models diagram</text>
<text text-anchor="start" x="8" y="-193.6" font-family="Times,serif" font-size="13.00">Date: Jul 18 2016 &#45; 20:36</text>
<text text-anchor="start" x="8" y="-179.6" font-family="Times,serif" font-size="13.00">Migration version: 20160719002810</text>
<text text-anchor="start" x="8" y="-165.6" font-family="Times,serif" font-size="13.00">Generated by RailRoady 1.5.1</text>
<text text-anchor="start" x="8" y="-151.6" font-family="Times,serif" font-size="13.00">http://railroady.prestonlee.com</text>
</g>
<!-- Inventory -->
<g id="node2" class="node"><title>Inventory</title>
<ellipse fill="none" stroke="black" cx="259" cy="-18" rx="44.6926" ry="18"/>
<text text-anchor="middle" x="259" y="-14.3" font-family="Times,serif" font-size="14.00">Inventory</text>
</g>
<!-- Category -->
<g id="node3" class="node"><title>Category</title>
<ellipse fill="none" stroke="black" cx="347" cy="-183" rx="42.7926" ry="18"/>
<text text-anchor="middle" x="347" y="-179.3" font-family="Times,serif" font-size="14.00">Category</text>
</g>
<!-- User -->
<g id="node4" class="node"><title>User</title>
<ellipse fill="none" stroke="black" cx="259" cy="-183" rx="27.0966" ry="18"/>
<text text-anchor="middle" x="259" y="-179.3" font-family="Times,serif" font-size="14.00">User</text>
</g>
<!-- Work -->
<g id="node5" class="node"><title>Work</title>
<ellipse fill="none" stroke="black" cx="259" cy="-90" rx="31.3957" ry="18"/>
<text text-anchor="middle" x="259" y="-86.3" font-family="Times,serif" font-size="14.00">Work</text>
</g>
<!-- User&#45;&gt;Work -->
<g id="edge1" class="edge"><title>User&#45;&gt;Work</title>
<path fill="none" stroke="#3059db" d="M259,-156.729C259,-144.725 259,-130.362 259,-118.129"/>
<ellipse fill="none" stroke="#3059db" cx="259" cy="-160.884" rx="4" ry="4"/>
<polygon fill="#3059db" stroke="#3059db" points="259,-118.04 263.5,-108.04 259,-113.04 259,-108.04 259,-108.04 259,-108.04 259,-113.04 254.5,-108.04 259,-118.04 259,-118.04"/>
</g>
<!-- Work&#45;&gt;Inventory -->
<g id="edge2" class="edge"><title>Work&#45;&gt;Inventory</title>
<path fill="none" stroke="#9922fe" d="M259,-63.6398C259,-57.348 259,-50.6053 259,-44.3156"/>
<ellipse fill="none" stroke="#9922fe" cx="259" cy="-67.6966" rx="4" ry="4"/>
<ellipse fill="#9922fe" stroke="#9922fe" cx="259" cy="-40.1043" rx="4" ry="4"/>
</g>
</g>
</svg>
